<svg xmlns="http://www.w3.org/2000/svg" id="svg46" version="1.1" viewBox="0 535.056 906.109640831758 253.896" style="max-height: 500px" width="906.109640831758" height="253.896">
  <defs id="defs46"/>
  
  <path id="path3" transform="translate(368.53160095214844,614.8528289794922)" fill="#A3BD30" d="M0 0 C0.90385437 -0.0071553 1.80770874 -0.01431061 2.73895264 -0.02168274 C3.72337845 -0.02437164 4.70780426 -0.02706055 5.72206116 -0.02983093 C6.76490265 -0.03640213 7.80774414 -0.04297333 8.88218689 -0.04974365 C12.33670629 -0.06946664 15.79118213 -0.08114002 19.2457428 -0.09111023 C20.42839785 -0.09518576 21.61105289 -0.09926128 22.82954597 -0.10346031 C29.09498545 -0.12432151 35.36040306 -0.13862038 41.62586975 -0.147995 C48.07488126 -0.15903089 54.52354502 -0.19339847 60.97243404 -0.23316669 C65.94926562 -0.25941184 70.92601555 -0.26769409 75.90291023 -0.27127647 C78.2785685 -0.27612571 80.65422354 -0.28769178 83.02981377 -0.30631447 C99.39824226 -0.42660501 113.01519662 -0.29207567 126.46839905 10.14717102 C127.49964905 10.88967102 128.53089905 11.63217102 129.59339905 12.39717102 C140.76187626 23.08006227 144.90051469 35.74473924 145.65431213 50.88008118 C145.73074039 54.93935629 145.74717329 58.99368842 145.73402405 63.05342102 C145.73537643 64.55069542 145.73732168 66.04796939 145.73982239 67.54524231 C145.74274677 70.66145569 145.73856365 73.77755329 145.72914124 76.89375305 C145.71774831 80.85045341 145.72432236 84.80688225 145.73628616 88.76357269 C145.74357806 91.84887163 145.74118356 94.93410817 145.73603058 98.01940918 C145.73471424 99.47677647 145.73626938 100.93414977 145.74098969 102.39151001 C145.78695962 120.56398855 143.84266327 136.50767511 130.70277405 150.18232727 C122.45292106 157.43700568 112.05814601 163.24592803 100.85173035 163.28761292 C99.46815338 163.29617813 99.46815338 163.29617813 98.05662537 163.30491638 C97.0518515 163.30603424 96.04707764 163.3071521 95.01185608 163.30830383 C93.94801697 163.31326874 92.88417786 163.31823364 91.7881012 163.323349 C88.26746475 163.33795876 84.74687334 163.34477021 81.22621155 163.35029602 C78.78007506 163.35604786 76.33393859 163.36180559 73.88780212 163.36756897 C68.75825287 163.37807517 63.62871927 163.38392053 58.49916077 163.3874054 C51.9262152 163.39289335 45.35347644 163.41692965 38.78059578 163.44537735 C33.72770075 163.4639986 28.67485562 163.46920904 23.62192917 163.47074127 C21.19863121 163.4737688 18.77533415 163.48180066 16.35206985 163.49492645 C12.96246322 163.5119779 9.57336319 163.51010878 6.18373108 163.50361633 C5.18300568 163.51283112 4.18228027 163.5220459 3.15122986 163.53153992 C-3.63515357 163.49081425 -7.9319398 162.43734871 -13.15660095 157.83467102 C-18.47274944 151.81902931 -20.6478744 147.47937961 -20.69273376 139.49189758 C-20.69769867 138.81995361 -20.70266357 138.14800964 -20.70777893 137.45570374 C-20.72238077 135.23305738 -20.72920018 133.01048246 -20.73472595 130.78779602 C-20.74048022 129.23943582 -20.74623792 127.69107563 -20.7519989 126.14271545 C-20.76250408 122.89452279 -20.76834951 119.64635484 -20.77183533 116.39814758 C-20.77731084 112.24770554 -20.80132047 108.09759308 -20.82980728 103.94725418 C-20.84848793 100.74723883 -20.8536422 97.54730189 -20.8551712 94.34723663 C-20.8581874 92.81790623 -20.86618087 91.28857686 -20.87935638 89.75930023 C-20.89652685 87.61262425 -20.89451017 85.4667405 -20.88804626 83.32002258 C-20.89169189 82.101073 -20.89533752 80.88212341 -20.89909363 79.62623596 C-20.32834125 74.22290494 -18.32469937 69.57723095 -14.78160095 65.39717102 C-14.3330072 64.84545227 -13.88441345 64.29373352 -13.42222595 63.72529602 C-8.47375159 59.5947513 -3.3566684 58.76975655 2.92909241 58.74311829 C3.63902847 58.73625504 4.34896454 58.72939178 5.08041382 58.72232056 C7.4065654 58.70415167 9.7320361 58.70787557 12.0582428 58.71357727 C13.68817359 58.70901068 15.31810246 58.70370368 16.94802856 58.69769287 C20.35650985 58.68878123 23.7647566 58.69116254 27.17323303 58.7011261 C31.52540394 58.71261315 35.87676314 58.69239895 40.22882748 58.66320896 C43.59276408 58.64479847 46.95650788 58.64514902 50.32048225 58.65084648 C51.9243388 58.65099911 53.5282089 58.64500377 55.13201714 58.63255501 C72.5466684 58.51641118 72.5466684 58.51641118 78.96899414 64.55905151 C84.55627339 70.76105368 84.915531 76.64978705 84.78089905 84.69404602 C84.22126361 90.87801762 82.1022638 94.94107694 77.46839905 99.02217102 C70.15439726 104.20292229 62.99053252 104.30002541 54.2535553 104.24482727 C53.39781418 104.24341232 52.54207306 104.24199738 51.66040039 104.24053955 C48.95052974 104.23498092 46.24074436 104.22243627 43.53089905 104.20967102 C41.68389504 104.20465067 39.83688973 104.2000887 37.98988342 104.19599915 C33.48268954 104.18502507 28.97555871 104.16778932 24.46839905 104.14717102 C24.46839905 109.09717102 24.46839905 114.04717102 24.46839905 119.14717102 C49.54839905 119.14717102 74.62839905 119.14717102 100.46839905 119.14717102 C100.46839905 94.39717102 100.46839905 69.64717102 100.46839905 44.14717102 C89.27289124 44.23418274 89.27289124 44.23418274 77.85121155 44.32295227 C73.11160637 44.34851196 68.37208664 44.37258248 63.63246155 44.39131165 C56.11600509 44.42115493 48.59985434 44.45638975 41.08363342 44.52436829 C35.02114902 44.57885326 28.95899263 44.60862669 22.8962822 44.62155724 C20.58789281 44.63076743 18.27952057 44.64875278 15.97127151 44.6758213 C12.72790032 44.71232955 9.48586974 44.71710711 6.24232483 44.71479797 C5.29645004 44.73277435 4.35057526 44.75075073 3.3760376 44.76927185 C-3.43720531 44.71707848 -8.90546667 43.08857567 -14.53160095 39.14717102 C-20.38704893 32.07657814 -21.30357791 25.14238081 -20.53160095 16.14717102 C-18.99457843 9.68580246 -15.89933011 6.01510558 -10.53160095 2.24092102 C-7.08799654 0.35769986 -3.88464454 0.02119546 0 0 Z"/>
  <path id="path5" transform="translate(210.796875,559.1015625)" fill="#A2BD30" d="M0 0 C5.09719058 3.9112106 7.27584445 8.69367781 8.203125 14.8984375 C8.33443578 17.97863746 8.31951738 21.05421349 8.30078125 24.13671875 C8.2993663 25.01748581 8.29795135 25.89825287 8.29649353 26.80570984 C8.29091437 29.60748753 8.27836571 32.40918412 8.265625 35.2109375 C8.26060731 37.11523322 8.25604487 39.01953019 8.25195312 40.92382812 C8.24095177 45.58206231 8.22370149 50.24023617 8.203125 54.8984375 C9.13891891 54.89177567 10.07471283 54.88511383 11.03886414 54.87825012 C19.90861155 54.81712401 28.77831557 54.77231487 37.64822674 54.74300098 C42.20706225 54.7274232 46.76572612 54.70633124 51.32446289 54.67211914 C55.73356091 54.63924154 60.14249506 54.62152537 64.55170631 54.61380577 C66.22401314 54.60831274 67.89631219 54.5975881 69.5685482 54.58124733 C87.38114636 54.41429486 101.91699016 56.97155686 115.515625 69.4609375 C126.43147887 81.02717235 129.52133873 94.68840667 129.4777832 110.18408203 C129.48289413 111.14658875 129.48800507 112.10909546 129.49327087 113.10076904 C129.50703545 116.24432804 129.50622075 119.38766469 129.50390625 122.53125 C129.50779903 124.73599324 129.51213489 126.94073575 129.51689148 129.14547729 C129.5243244 133.74984172 129.52408271 138.35412942 129.51879883 142.95849609 C129.51299337 148.84380124 129.5299756 154.72879279 129.5531435 160.6140461 C129.56790509 165.1609377 129.56874948 169.70775405 129.56563377 174.25466537 C129.56614527 176.42428079 129.5713507 178.5939006 129.58144569 180.76349258 C129.59384648 183.79972796 129.58699756 186.83535566 129.57543945 189.87158203 C129.58308319 190.75701691 129.59072693 191.64245178 129.59860229 192.55471802 C129.53869572 199.71082266 128.35672237 207.27379248 123.390625 212.7734375 C122.93042969 213.30710937 122.47023438 213.84078125 121.99609375 214.390625 C116.04432362 219.39581731 110.31396388 219.41453975 102.84375 219.24609375 C96.55598238 218.64565242 92.52813225 216.63163522 88.328125 211.9609375 C84.07098329 205.82564503 83.92180915 200.96605229 83.97607422 193.69213867 C83.97578217 192.66728363 83.97549011 191.64242859 83.97518921 190.58651733 C83.97658066 187.20472701 83.99213343 183.82315801 84.0078125 180.44140625 C84.01154328 178.0944277 84.01438994 175.74744759 84.01638794 173.40046692 C84.02401926 167.22730194 84.04366356 161.05423127 84.0657959 154.88110352 C84.08986477 147.47218016 84.09903769 140.06322526 84.11070251 132.65427399 C84.13008813 121.40226293 84.16841439 110.15045875 84.203125 98.8984375 C59.123125 98.8984375 34.043125 98.8984375 8.203125 98.8984375 C8.23792969 106.07335937 8.27273437 113.24828125 8.30859375 120.640625 C8.32393023 125.19792485 8.3383727 129.75519269 8.34960938 134.3125 C8.36751235 141.53913009 8.3886459 148.76564566 8.42944336 155.9921875 C8.46214367 161.82123186 8.48000058 167.65015334 8.48775673 173.47928238 C8.49328108 175.69832416 8.50406867 177.91735954 8.52031517 180.13634872 C8.5422311 183.25494442 8.54508599 186.37303837 8.54370117 189.49169922 C8.554487 190.40017105 8.56527283 191.30864288 8.5763855 192.24464417 C8.54284091 199.26897893 7.71530539 206.61893841 3.3359375 212.3359375 C2.67335937 212.8515625 2.01078125 213.3671875 1.328125 213.8984375 C0.34199219 214.7028125 0.34199219 214.7028125 -0.6640625 215.5234375 C-7.30887796 219.80727457 -14.10482217 219.59455088 -21.796875 218.8984375 C-27.78232373 217.26266269 -31.31990759 213.90936113 -34.796875 208.8984375 C-36.95476384 204.64635578 -37.0841087 200.69864452 -37.06430054 196.02397156 C-37.06883165 195.23721835 -37.07336276 194.45046515 -37.07803118 193.63987094 C-37.09067889 191.00684298 -37.08905458 188.37402176 -37.08740234 185.7409668 C-37.09338738 183.85175307 -37.10019287 181.9625418 -37.10775757 180.07333374 C-37.12542777 174.94307792 -37.1301134 169.81288881 -37.13138914 164.6826055 C-37.13281078 161.47654066 -37.13708063 158.27049278 -37.14238358 155.06443214 C-37.16088757 143.87700956 -37.16905377 132.68963464 -37.16748047 121.50219727 C-37.16627913 111.07811438 -37.18737911 100.65423858 -37.2189678 90.2302081 C-37.2451308 81.27718021 -37.25584774 72.32421995 -37.25456965 63.37115413 C-37.25406 58.0254503 -37.25974472 52.67993047 -37.28092575 47.33426476 C-37.30030832 42.30516447 -37.30043237 37.2764237 -37.28589249 32.24731064 C-37.28380329 30.40428326 -37.2885119 28.56123338 -37.3006134 26.71824455 C-37.31609666 24.19636093 -37.30673812 21.67571223 -37.29135132 19.15385437 C-37.30163844 18.42961468 -37.31192557 17.70537499 -37.32252443 16.95918864 C-37.25005686 11.56098764 -35.7236804 7.43765259 -32.796875 2.8984375 C-30.61328125 0.83984375 -30.61328125 0.83984375 -28.359375 -0.5390625 C-27.61816406 -1.01214844 -26.87695312 -1.48523438 -26.11328125 -1.97265625 C-17.79530186 -6.02644385 -7.74569491 -4.74844775 0 0 Z"/>
  <path id="path6" transform="translate(783.47119140625,614.822998046875)" fill="#A3BD30" d="M0 0 C1.26206268 -0.0098568 1.26206268 -0.0098568 2.54962158 -0.01991272 C5.32653912 -0.03957735 8.10340268 -0.05129449 10.88037109 -0.0612793 C12.3091968 -0.06739259 12.3091968 -0.06739259 13.76688766 -0.07362938 C18.8110609 -0.09446331 23.85520716 -0.1087753 28.89941406 -0.11816406 C34.08750327 -0.12920902 39.27516132 -0.16359464 44.46309853 -0.20333576 C48.47135164 -0.22958733 52.47950343 -0.23786357 56.48783493 -0.24144554 C58.39904052 -0.24629122 60.3102422 -0.25784704 62.22136307 -0.27648354 C81.36253274 -0.45150599 81.36253274 -0.45150599 90.52880859 4.17700195 C91.57294922 4.69520508 92.61708984 5.2134082 93.69287109 5.74731445 C105.51716444 13.21726485 112.63742946 22.54859794 117.08709717 35.8453064 C117.74877458 39.33815304 117.68482623 42.82489183 117.68994141 46.36694336 C117.69490631 47.19027161 117.69987122 48.01359985 117.70498657 48.86187744 C117.7195826 51.584115 117.72640734 54.3062942 117.73193359 57.02856445 C117.7376889 58.92703248 117.74344658 60.8255005 117.74920654 62.72396851 C117.75971046 66.70685089 117.76555654 70.68971314 117.76904297 74.67260742 C117.77451431 79.75649424 117.79851577 84.84011143 117.82701492 89.92391396 C117.84571684 93.84806066 117.850851 97.77214353 117.85237885 101.69633102 C117.85539088 103.5692733 117.86337 105.44221484 117.87656403 107.31511307 C117.98482619 123.87005075 115.82335283 136.77365102 104.27880859 149.52075195 C94.63808296 158.64501014 83.43143346 163.308679 70.27880859 163.35400391 C69.44893936 163.3605751 68.61907013 163.3671463 67.76405334 163.37391663 C65.01897075 163.39361564 62.27394293 163.40530804 59.52880859 163.4152832 C58.58762177 163.41935873 57.64643494 163.42343426 56.67672729 163.42763329 C51.68976055 163.44848501 46.7028212 163.46278755 41.71582031 163.47216797 C36.589453 163.48319764 31.46352389 163.51756023 26.33731079 163.55733967 C22.37533824 163.5836182 18.41346803 163.59187 14.45141602 163.59544945 C12.56336527 163.6002907 10.67531832 163.61183357 8.78735352 163.63048744 C-6.48359332 163.77192648 -18.26559303 162.19344055 -30.47119141 152.17700195 C-31.18146484 151.60336914 -31.89173828 151.02973633 -32.62353516 150.4387207 C-41.57862234 142.41179994 -46.94780065 130.13355241 -47.73188782 118.21391296 C-47.74656703 116.8119486 -47.75073235 115.40984521 -47.74584961 114.0078125 C-47.75096054 113.23427429 -47.75607147 112.46073608 -47.76133728 111.66375732 C-47.77513041 109.13033099 -47.77428405 106.59717991 -47.77197266 104.0637207 C-47.77586576 102.28546551 -47.78020168 100.50721123 -47.78495789 98.72895813 C-47.79239842 95.00954163 -47.79214497 91.29022009 -47.78686523 87.57080078 C-47.78107921 82.83012019 -47.79799118 78.0898314 -47.82120991 73.34921551 C-47.83602191 69.67808298 -47.83680874 66.00704313 -47.83370018 62.335886 C-47.83420983 60.5893762 -47.83937991 58.84286072 -47.8495121 57.09638023 C-47.93131752 41.02256775 -45.9257116 26.34264728 -34.48291016 14.0559082 C-24.35870671 4.60009877 -13.74665861 0.04693132 0 0 Z M-2.47119141 44.17700195 C-2.47119141 68.59700195 -2.47119141 93.01700195 -2.47119141 118.17700195 C22.60880859 118.17700195 47.68880859 118.17700195 73.52880859 118.17700195 C73.52880859 93.75700195 73.52880859 69.33700195 73.52880859 44.17700195 C48.44880859 44.17700195 23.36880859 44.17700195 -2.47119141 44.17700195 Z"/>
  <path id="path7" transform="translate(67.77734375,554.50390625)" fill="#A3BD30" d="M0 0 C2.26485745 -0.00015534 4.52971515 -0.00165002 6.79457092 -0.00440979 C11.51038554 -0.00578512 16.2258928 0.00662524 20.94165039 0.02954102 C26.96921314 0.05803747 32.99627059 0.05514552 39.02387142 0.0424509 C43.68830141 0.03548306 48.35261553 0.04329382 53.01703072 0.05570793 C55.23966591 0.06020359 57.46231361 0.06057583 59.68494987 0.05664253 C62.79014348 0.05371651 65.89464943 0.0703001 68.99975586 0.09204102 C69.90538773 0.08753937 70.81101959 0.08303772 71.74409485 0.07839966 C78.50224614 0.15660556 85.18054804 1.02279375 90.5625 5.3984375 C91.08972656 6.07003906 91.61695313 6.74164062 92.16015625 7.43359375 C92.70542969 8.10261719 93.25070313 8.77164063 93.8125 9.4609375 C98.33711184 15.99091747 98.00758757 22.80862201 97.22265625 30.49609375 C95.23868945 36.13294362 91.20781935 40.29806459 86.22265625 43.49609375 C79.53292951 45.47975656 72.83631125 45.77849159 65.90771484 45.72314453 C64.91529093 45.7233856 63.92286701 45.72362667 62.90036964 45.72387505 C59.7238495 45.72239572 56.54757128 45.70722691 53.37109375 45.69140625 C51.39559034 45.68846153 49.42008536 45.68642373 47.44458008 45.68530273 C40.16224816 45.67486515 32.87994977 45.64694263 25.59765625 45.62109375 C9.30390625 45.57984375 -6.98984375 45.53859375 -23.77734375 45.49609375 C-23.77734375 90.37609375 -23.77734375 135.25609375 -23.77734375 181.49609375 C10.32800823 181.33792715 10.32800823 181.33792715 44.43310547 181.13574219 C51.05297852 181.11767578 51.05297852 181.11767578 54.15921021 181.11431885 C56.31297111 181.1082059 58.46671895 181.09419876 60.62039185 181.0737915 C63.89674391 181.04431783 67.1722648 181.04047613 70.44873047 181.04199219 C71.39642744 181.02759975 72.34412441 181.01320732 73.32053947 180.99837875 C80.87783293 181.04488321 88.10474788 182.5340808 93.72265625 187.87109375 C98.0483544 195.44106552 98.80535471 204.63291536 96.53515625 213.04296875 C94.45152346 217.66168811 91.77367348 220.12577227 87.22265625 222.49609375 C84.21670113 223.43552733 81.49092861 223.62746282 78.34938049 223.64326477 C77.36979874 223.65042007 76.39021698 223.65757538 75.38095093 223.66494751 C74.31236847 223.66763641 73.24378601 223.67032532 72.14282227 223.6730957 C70.44688683 223.6829525 70.44688683 223.6829525 68.71669006 223.69300842 C64.96998018 223.71273797 61.22331047 223.72440589 57.4765625 223.734375 C56.19461439 223.73845053 54.91266628 223.74252605 53.59187126 223.74672508 C47.50125138 223.76543776 41.41065153 223.78000031 35.32000881 223.78833705 C28.31822277 223.79808174 21.31675519 223.82432952 14.31508118 223.86483794 C8.22930099 223.89882268 2.14365289 223.91049754 -3.94221687 223.91454124 C-6.51883154 223.91939425 -9.09544312 223.93097123 -11.67199516 223.94957924 C-44.98381205 224.17512541 -44.98381205 224.17512541 -57.77734375 212.49609375 C-67.1169636 202.18821957 -68.37880839 188.65948561 -68.29492188 175.34936523 C-68.30035744 173.87924512 -68.30748807 172.40913046 -68.31616211 170.93902588 C-68.33422671 166.98649792 -68.32739915 163.03439271 -68.31464577 159.0818584 C-68.3044316 154.9221612 -68.3139344 150.76249726 -68.32019043 146.60279846 C-68.32744176 139.62193382 -68.31794473 132.64123915 -68.29882812 125.66040039 C-68.27705562 117.61739027 -68.28412354 109.57478577 -68.30613375 101.53178543 C-68.32434963 94.59462777 -68.32681624 87.65759143 -68.31637907 80.72041756 C-68.31017907 76.59090763 -68.30921139 72.4615877 -68.32252502 68.33209038 C-68.33417396 64.44859929 -68.32589524 60.56562577 -68.302948 56.68218994 C-68.29770907 55.26656511 -68.29909089 53.85089588 -68.30799866 52.43528938 C-68.3976717 36.72278991 -64.1613476 25.27510851 -53.46484375 13.74609375 C-38.44728555 -0.31219311 -19.33664258 -0.1090095 0 0 Z"/>
  <path id="path8" transform="translate(659,563)" fill="#A3BC30" d="M0 0 C5.07329267 4.39830523 7.60406863 9.32963366 8.17411804 16.05387878 C8.22969081 18.29775951 8.22527565 20.53298714 8.1953125 22.77734375 C8.1924826 23.58869278 8.18965271 24.40004181 8.18673706 25.23597717 C8.17562663 27.80330753 8.15053971 30.37027678 8.125 32.9375 C8.11495836 34.68814597 8.10583459 36.43879746 8.09765625 38.18945312 C8.07571734 42.45977254 8.0412516 46.72982525 8 51 C9.83776001 50.97643433 9.83776001 50.97643433 11.71264648 50.95239258 C16.29168023 50.89777579 20.87068561 50.86353511 25.44995117 50.83520508 C27.42558649 50.82019044 29.40118889 50.79977249 31.37670898 50.77368164 C34.22908695 50.73697428 37.08102129 50.72020007 39.93359375 50.70703125 C40.80584091 50.69154739 41.67808807 50.67606354 42.57676697 50.66011047 C49.33328867 50.65828829 55.92662462 51.54745671 61.33984375 55.8671875 C62.13068359 56.86105469 62.13068359 56.86105469 62.9375 57.875 C63.48277344 58.53242187 64.02804687 59.18984375 64.58984375 59.8671875 C68.7798914 66.20448948 68.71460194 72.61280249 68 80 C66.32407043 85.97049908 63.01235734 89.52203776 58 93 C53.1058106 95.68102749 48.09347397 95.25399159 42.66796875 95.1953125 C41.34859314 95.19229126 41.34859314 95.19229126 40.00256348 95.18920898 C36.73082227 95.17878 33.45915565 95.15085746 30.1875 95.125 C22.865625 95.08375 15.54375 95.0425 8 95 C8 120.08 8 145.16 8 171 C22.44939044 170.88160191 22.44939044 170.88160191 36.8984375 170.72973633 C38.72395295 170.72096589 40.54947432 170.71332327 42.375 170.70703125 C43.77105469 170.6840094 43.77105469 170.6840094 45.1953125 170.66052246 C53.53319886 170.65721027 60.2915223 172.47617831 66.5234375 178.28125 C70.93010164 183.41070032 71.62044413 189.60457499 71.41015625 196.1875 C70.59094679 201.80493628 68.35427477 206.75906012 64.21484375 210.69921875 C59.79145682 213.97684516 56.25897932 215.12117874 50.86108398 215.16113281 C49.81246689 215.17074036 48.76384979 215.1803479 47.68345642 215.19024658 C46.54912674 215.19449646 45.41479706 215.19874634 44.24609375 215.203125 C42.49015648 215.21167511 42.49015648 215.21167511 40.69874573 215.22039795 C38.21640935 215.22985325 35.73406039 215.23638403 33.25170898 215.24023438 C29.47682323 215.24989932 25.70249137 215.28090175 21.92773438 215.3125 C19.51302406 215.31903429 17.09830985 215.32428308 14.68359375 215.328125 C13.00335365 215.3466452 13.00335365 215.3466452 11.28916931 215.36553955 C-2.03685809 215.32818699 -13.86884601 211.08050326 -23.75 201.9375 C-36.34064205 188.53310011 -37.3024958 173.9565685 -37.1953125 156.62109375 C-37.19157697 154.84033874 -37.18873255 153.05958166 -37.18673706 151.27882385 C-37.17914307 146.61817637 -37.15953147 141.95765583 -37.1373291 137.29705811 C-37.11677892 132.53073849 -37.10771582 127.76439813 -37.09765625 122.99804688 C-37.07628116 113.66530916 -37.042197 104.33266519 -37 95 C-38.54264526 95.02936646 -38.54264526 95.02936646 -40.11645508 95.05932617 C-41.47997528 95.0751606 -42.8435011 95.0905162 -44.20703125 95.10546875 C-44.88318481 95.11960815 -45.55933838 95.13374756 -46.25598145 95.14831543 C-53.24657851 95.20577239 -57.38051291 93.54869014 -62.3125 88.75 C-66.8453431 81.36314457 -68.17972885 74.41911288 -66.6015625 65.83203125 C-64.84800243 59.94507958 -61.0096623 56.37404494 -56 53 C-51.50850107 51.01337547 -47.60128781 50.935358 -42.765625 50.96484375 C-41.14575684 50.97245728 -41.14575684 50.97245728 -39.49316406 50.98022461 C-38.67041992 50.98675049 -37.84767578 50.99327637 -37 51 C-37.02618408 49.87094238 -37.05236816 48.74188477 -37.0793457 47.57861328 C-37.17055425 43.34818719 -37.22750316 39.1178461 -37.2746582 34.88671875 C-37.29964279 33.06332738 -37.33364279 31.24003452 -37.37719727 29.41699219 C-37.85155504 9.03635009 -37.85155504 9.03635009 -32 2 C-22.78739357 -5.57132352 -10.12329032 -6.6963399 0 0 Z"/>
  <path id="path10" transform="translate(553.8125,614.5)" fill="#A3BC31" d="M0 0 C1.18758911 0.00749268 1.18758911 0.00749268 2.39916992 0.01513672 C9.75548899 0.23378308 15.26001657 2.00369614 20.82421875 6.95703125 C26.97433966 13.63581585 26.48012673 21.39927791 26.4621582 29.91186523 C26.46726913 31.15970795 26.47238007 32.40755066 26.47764587 33.69320679 C26.4891427 37.1044501 26.49161896 40.51544997 26.48908257 43.92669559 C26.48801028 46.77950267 26.4929028 49.63228753 26.497688 52.48508984 C26.50876958 59.21769737 26.5092281 65.9502491 26.50317383 72.68286133 C26.49713356 79.61752493 26.50944938 86.55198565 26.5307439 93.48661464 C26.54838281 99.45113999 26.55435768 105.41560088 26.55110615 111.38015133 C26.5492969 114.93782609 26.55189362 118.4953561 26.56582069 122.05300713 C26.58077654 126.02166526 26.57140885 129.99006666 26.55981445 133.95874023 C26.57128006 135.71621834 26.57128006 135.71621834 26.58297729 137.50920105 C26.52860643 145.93016713 25.38132797 152.30617203 19.1875 158.5 C10.06370229 163.98536016 -0.00226662 164.97824089 -10.43359375 163.00390625 C-16.85685789 160.78769231 -21.83141976 156.61905943 -24.8125 150.5 C-25.7969331 147.33392003 -25.94470663 144.44516006 -25.95967102 141.13751221 C-25.96682632 140.0497348 -25.97398163 138.9619574 -25.98135376 137.84121704 C-25.98404266 136.6525705 -25.98673157 135.46392395 -25.98950195 134.23925781 C-25.99607315 132.98355988 -26.00264435 131.72786194 -26.00941467 130.43411255 C-26.03040933 126.27379626 -26.04081278 122.1134798 -26.05078125 117.953125 C-26.05483053 116.51819591 -26.0589475 115.08326702 -26.06313133 113.64833832 C-26.08217295 106.90579561 -26.09640611 100.16326377 -26.1047433 93.42069936 C-26.11451209 85.64970127 -26.14082631 77.8789883 -26.18124419 70.10809064 C-26.21144876 64.09349496 -26.22621627 58.07898082 -26.22952431 52.06431079 C-26.23186986 48.47576144 -26.24076508 44.88751705 -26.26598549 41.29904938 C-26.29369416 37.29195844 -26.2894219 33.2855011 -26.2824707 29.27832031 C-26.29528076 28.09777069 -26.30809082 26.91722107 -26.32128906 25.70089722 C-26.26830817 17.31516245 -25.0085656 11.6960656 -19 5.6875 C-12.66697368 1.34130547 -7.5627599 -0.06252202 0 0 Z"/>
  <path id="path12" transform="translate(572,549)" fill="#4A0C5B" d="M0 0 C8.58546049 6.13053419 12.4369188 12.10678095 14.375 22.375 C15.56856072 31.78242861 13.91476501 38.76379486 8.76953125 46.73828125 C3.84976323 53.02646157 -2.85255429 56.54815634 -10.4375 58.6875 C-20.71213798 59.94050463 -29.46694205 57.83430307 -37.95703125 51.80859375 C-44.81883879 45.73399167 -48.23099065 37.66328718 -48.96484375 28.68359375 C-49.07477725 20.29200352 -46.72594188 12.16025412 -41.08984375 5.8671875 C-29.87382028 -4.8543023 -13.84628108 -8.31243856 0 0 Z"/>
</svg>