<svg xmlns="http://www.w3.org/2000/svg" id="svg46" version="1.1" viewBox="88.56710775047259 0 546.7315689981097 610.0319999999999" style="max-height: 500px" width="546.7315689981097" height="610.0319999999999">
  <defs id="defs46"/>
  
  <path id="path1" transform="translate(481.310791015625,147.7724609375)" fill="#4A0D5B" d="M0 0 C2.40257745 0.80626175 4.80008612 1.62773899 7.19311523 2.46191406 C8.48352982 2.90176998 9.77430365 3.34057321 11.06541443 3.77838135 C13.75864791 4.69478064 16.44857425 5.62010728 19.13623047 6.55273438 C22.55985879 7.74051964 25.9890029 8.91125152 29.42053318 10.07598495 C32.08265707 10.98060723 34.74261989 11.89144333 37.40189934 12.80438995 C39.27333525 13.4465484 41.1457582 14.08582807 43.01820374 14.72503662 C58.25056037 20.01751375 58.25056037 20.01751375 62.68920898 24.04003906 C65.25481236 29.65229644 63.27408651 35.41773931 61.28295898 40.91113281 C61.03880249 41.61150162 60.794646 42.31187042 60.54309082 43.03346252 C59.76858442 45.24770133 58.97920313 47.45628483 58.18920898 49.66503906 C57.65826525 51.17445477 57.12830735 52.68421764 56.59936523 54.19433594 C55.30734275 57.876182 54.00196221 61.55303613 52.68920898 65.22753906 C57.40893719 67.33251279 62.06282405 69.04795398 67.02636719 70.52416992 C67.7233371 70.73276138 68.42030701 70.94135284 69.13839722 71.15626526 C70.63937625 71.60493011 72.1409186 72.051714 73.64296913 72.49677849 C76.02924034 73.20401566 78.41386375 73.91658158 80.79814148 74.63050842 C86.72051633 76.40272634 92.64542702 78.16640004 98.57055664 79.92938232 C103.58287341 81.42100668 108.59403808 82.91638972 113.60371971 84.41684151 C115.93665964 85.1139471 118.27116994 85.80559829 120.60578918 86.49705505 C142.55428415 93.0352999 142.55428415 93.0352999 145.68920898 98.22753906 C146.44965516 103.2971802 146.20612852 106.05153055 143.18920898 110.22753906 C138.59402189 115.73960621 133.48875468 120.6831047 128.06005859 125.36328125 C121.26285972 131.30405804 114.90996443 137.70599545 108.50439453 144.06225586 C106.90843503 145.64150031 105.30710923 147.21533859 103.70068359 148.78393555 C101.3709688 151.05923434 99.05781738 153.35023206 96.74780273 155.64550781 C95.66214272 156.69716377 95.66214272 156.69716377 94.55455017 157.77006531 C93.89959061 158.42787491 93.24463104 159.08568451 92.56982422 159.76342773 C91.9877269 160.3374382 91.40562958 160.91144867 90.80589294 161.50285339 C89.45496336 163.18443364 89.45496336 163.18443364 89.9500885 165.33244324 C90.73517164 167.34538675 91.6510666 169.03909012 92.81420898 170.86035156 C93.26465576 171.57054443 93.71510254 172.2807373 94.17919922 173.01245117 C94.92665405 174.17079468 94.92665405 174.17079468 95.68920898 175.35253906 C96.21393799 176.17439697 96.73866699 176.99625488 97.27929688 177.84301758 C103.9787262 188.30176948 110.804888 198.67923461 117.6159668 209.06542969 C120.74983019 213.84519873 123.87905835 218.62793756 127.00170898 223.41503906 C127.78276001 224.60697876 127.78276001 224.60697876 128.57958984 225.82299805 C137.75306837 239.89872997 137.75306837 239.89872997 136.68920898 247.22753906 C133.35471938 251.2506012 130.44849919 253.04854895 125.50854492 254.62084961 C124.26913147 255.0235759 123.02971802 255.42630219 121.75274658 255.8412323 C120.39312351 256.26588739 119.03339949 256.69021935 117.67358398 257.11425781 C116.24589665 257.57175277 114.81863917 258.03059102 113.39178467 258.49067688 C109.54805358 259.72582905 105.69852148 260.94188096 101.84762573 262.15447998 C97.79190407 263.43524501 93.7418972 264.73384263 89.69116211 266.03027344 C80.76592489 268.8829538 71.83283635 271.71044697 62.89724731 274.53050995 C59.56385276 275.58278926 56.23105162 276.63694131 52.89819336 277.69091797 C43.74615461 280.58380089 34.59281852 283.47250974 25.43603516 286.3503418 C5.50666928 292.6196602 -14.37428103 299.03532657 -34.24829102 305.47753906 C-35.79044441 305.97721835 -37.33259933 306.47689289 -38.87475586 306.9765625 C-42.55484834 308.16916463 -46.23455359 309.3629547 -49.91396904 310.55764389 C-51.31309372 311.01184844 -52.71229954 311.46580313 -54.11158943 311.91949844 C-60.46367408 313.97946807 -66.81310835 316.04396641 -73.13085938 318.20751953 C-74.38456078 318.63541779 -74.38456078 318.63541779 -75.66358948 319.07196045 C-77.11424585 319.57015924 -78.56283452 320.07445764 -80.00840759 320.58721924 C-86.43528876 322.79807682 -92.82683937 323.67152349 -99.38500977 321.55957031 C-107.11287425 317.72078296 -111.90420175 309.10074322 -116.43188477 302.11425781 C-117.00550751 301.23859665 -117.57913025 300.36293549 -118.1701355 299.46073914 C-120.033709 296.61488759 -121.89092761 293.76494661 -123.74829102 290.91503906 C-126.34135942 286.95064155 -128.93854415 282.98895638 -131.53735352 279.02832031 C-132.51376549 277.53951355 -132.51376549 277.53951355 -133.50990295 276.02062988 C-137.7350132 269.59051568 -142.00867866 263.195962 -146.33422852 256.83300781 C-146.87437088 256.03837631 -147.41451324 255.24374481 -147.97102356 254.42503357 C-150.50750471 250.69853527 -153.05195672 246.9776622 -155.60351562 243.26147461 C-156.50208164 241.94550744 -157.40060331 240.62950999 -158.29907227 239.31347656 C-158.710112 238.71975754 -159.12115173 238.12603851 -159.54464722 237.514328 C-162.31079102 233.45353927 -162.31079102 233.45353927 -162.31079102 231.22753906 C-178.74173446 231.16113129 -195.15666733 231.30402271 -211.58377075 231.65588379 C-220.80928767 231.84948549 -230.03549974 232.0103517 -239.26159668 232.17358398 C-241.19153755 232.20773403 -243.1214704 232.24234368 -245.0513916 232.27758789 C-250.15871385 232.36954084 -255.26532754 232.43371325 -260.37329102 232.47753906 C-261.53368896 232.49880859 -262.69408691 232.52007812 -263.88964844 232.54199219 C-276.630202 232.59528004 -288.99037538 230.29086061 -298.42407227 221.18847656 C-300.4783872 218.93072461 -302.40925896 216.61514782 -304.31079102 214.22753906 C-304.91020508 213.47730469 -305.50961914 212.72707031 -306.12719727 211.95410156 C-307.41752206 210.33244076 -308.70512024 208.70860798 -309.99047852 207.08300781 C-313.33823444 202.96312636 -316.82949292 198.97336872 -320.31689453 194.97167969 C-325.25702975 189.3013875 -330.12272207 183.57166765 -334.96801758 177.8203125 C-337.2450054 175.11939094 -339.52824895 172.42376662 -341.81079102 169.72753906 C-342.72748686 168.64423042 -343.64415354 167.5608971 -344.56079102 166.47753906 C-345.01454102 165.94128906 -345.46829102 165.40503906 -345.93579102 164.85253906 C-353.49829102 155.91503906 -353.49829102 155.91503906 -361.06079102 146.97753906 C-361.51502441 146.44088623 -361.96925781 145.9042334 -362.43725586 145.35131836 C-363.34971182 144.2726222 -364.26150081 143.1933615 -365.17260742 142.11352539 C-367.52342198 139.32913484 -369.88657 136.5568114 -372.27172852 133.80175781 C-385.04648044 119.00280014 -385.04648044 119.00280014 -385.68579102 112.29003906 C-385.31079102 109.22753906 -385.31079102 109.22753906 -384.31079102 108.22753906 C-381.01098682 107.94669462 -377.68321728 108.03772497 -374.37329102 108.04003906 C-373.27750732 108.04011963 -372.18172363 108.0402002 -371.05273438 108.0402832 C-358.15127372 108.12092264 -345.26344341 108.65022481 -332.37329102 109.16503906 C-331.27034698 109.20851471 -330.16740295 109.25199036 -329.03103638 109.29678345 C-325.8233325 109.42476057 -322.61586851 109.55752218 -319.40844727 109.69238281 C-318.45389648 109.73098419 -317.4993457 109.76958557 -316.51586914 109.80935669 C-310.09234785 110.08918306 -303.70880282 110.59304991 -297.31079102 111.22753906 C-299.07015074 106.21434704 -300.83002255 101.20133517 -302.59033203 96.18847656 C-303.18682073 94.48963056 -303.78317894 92.79073874 -304.37939453 91.09179688 C-304.95852501 89.44159162 -305.53787977 87.79146505 -306.11746216 86.14141846 C-306.69151149 84.50654841 -307.26481522 82.87141637 -307.83737183 81.23602295 C-309.13836482 77.5270126 -310.45168174 73.82448872 -311.81713867 70.13867188 C-312.26492676 68.92276367 -312.71271484 67.70685547 -313.17407227 66.45410156 C-313.76055542 64.88909912 -313.76055542 64.88909912 -314.35888672 63.29248047 C-315.69103425 59.00323192 -316.71517263 54.96637999 -315.68579102 50.54003906 C-313.83823772 47.43279034 -312.45815041 46.09026197 -309.31079102 44.22753906 C-301.35108102 42.24711357 -293.0551574 41.50914408 -284.92333984 40.56347656 C-283.63070221 40.41033997 -282.33806458 40.25720337 -281.0062561 40.09942627 C-277.49183765 39.68314369 -273.9769383 39.27106203 -270.46193528 38.85974884 C-266.75758036 38.4254976 -263.05370501 37.98719322 -259.34977722 37.54931641 C-252.33237013 36.72031469 -245.31456651 35.8947228 -238.296601 35.07046318 C-228.04019453 33.86569272 -217.78440112 32.6557238 -207.52859783 31.4458313 C-206.00251987 31.2658059 -204.47644165 31.08578269 -202.95036316 30.90576172 C-202.20387644 30.81769823 -201.45738972 30.72963474 -200.68828219 30.63890266 C-196.3026304 30.12163917 -191.91687031 29.60530708 -187.53099817 29.08991528 C-185.45862864 28.84632368 -183.38629859 28.60239862 -181.31397533 28.3584137 C-178.71625088 28.05286507 -176.11841609 27.7482527 -173.52045918 27.44468689 C-168.3589881 26.83881894 -163.20088085 26.22577914 -158.05184937 25.52124023 C-157.30386676 25.42019989 -156.55588415 25.31915955 -155.7852354 25.21505737 C-153.94919706 24.96286981 -152.11476066 24.6990842 -150.28056335 24.43383789 C-143.91094046 23.99136433 -138.67219366 25.91172589 -133.68579102 29.79003906 C-131.31079102 32.22753906 -131.31079102 32.22753906 -131.31079102 34.22753906 C-130.74639816 34.11478638 -130.18200531 34.00203369 -129.60050964 33.88586426 C-123.68093698 32.70542205 -117.75858494 31.53976357 -111.83447266 30.38232422 C-109.62931194 29.94952209 -107.42486569 29.51306192 -105.22119141 29.07275391 C-102.03806328 28.43742487 -98.85252551 27.81566596 -95.66625977 27.19628906 C-94.69496628 26.99942505 -93.72367279 26.80256104 -92.72294617 26.59973145 C-76.84535429 23.5566546 -76.84535429 23.5566546 -69.87329102 26.85253906 C-64.59082406 31.74848405 -62.73215131 36.35763097 -61.31079102 43.22753906 C-60.22797852 42.29941406 -60.22797852 42.29941406 -59.12329102 41.35253906 C-53.41208601 37.03740639 -48.32109793 36.51410075 -41.31079102 37.22753906 C-38.21082959 38.01853217 -35.28542835 39.06204503 -32.31079102 40.22753906 C-32.07102539 39.01453125 -31.83125977 37.80152344 -31.58422852 36.55175781 C-30.17472998 30.22387733 -28.05735371 24.15859814 -25.93579102 18.04003906 C-25.54907227 16.89083984 -25.16235352 15.74164063 -24.76391602 14.55761719 C-19.91278616 0.50073588 -15.36890233 -4.7795099 0 0 Z M-208.25537109 105.11376953 C-209.50416298 105.25525421 -209.50416298 105.25525421 -210.77818298 105.39959717 C-218.46113476 106.27136951 -226.14307007 107.15206216 -233.82469654 108.035429 C-238.98958999 108.6292846 -244.15478085 109.22021702 -249.32080078 109.80419922 C-254.30883597 110.3681264 -259.29597486 110.93942944 -264.28256798 111.51596451 C-266.18527172 111.73466422 -268.08828035 111.9507279 -269.99158669 112.16411972 C-272.65460083 112.46319362 -275.31636011 112.77171786 -277.97802734 113.08251953 C-279.16034439 113.21199478 -279.16034439 113.21199478 -280.36654663 113.34408569 C-284.03863468 113.78256824 -287.14477132 114.24035475 -290.31079102 116.22753906 C-289.66754883 116.73800781 -289.02430664 117.24847656 -288.36157227 117.77441406 C-282.99615067 122.09124399 -277.83434341 126.52119262 -272.81079102 131.22753906 C-268.91505627 134.87646186 -264.97744736 138.38452409 -260.81079102 141.72753906 C-256.04970624 145.54747917 -251.59806077 149.61692725 -247.14672852 153.78613281 C-243.79962232 156.9032246 -240.38064961 159.86335019 -236.81079102 162.72753906 C-231.40642319 167.0668125 -226.36123979 171.73150321 -221.29516602 176.45410156 C-216.68930875 180.74735706 -211.92979032 184.85083328 -207.13500977 188.93066406 C-205.94333416 189.945973 -204.75193692 190.96160874 -203.56079102 191.97753906 C-202.65538574 192.74964722 -202.65538574 192.74964722 -201.73168945 193.53735352 C-197.78612781 196.91843681 -193.92977275 200.37857377 -190.12329102 203.91503906 C-185.56056356 208.1523954 -180.84837911 212.14294646 -175.96313477 216.00488281 C-173.31079102 218.22753906 -173.31079102 218.22753906 -170.75219727 220.85644531 C-169.9259082 221.70078125 -169.09961914 222.54511719 -168.24829102 223.41503906 C-167.53543945 224.19234375 -166.82258789 224.96964844 -166.08813477 225.77050781 C-158.90633044 229.53817731 -146.74149843 223.40905351 -139.40454102 221.21191406 C-138.03130283 220.80427827 -136.65794732 220.39703758 -135.28448486 219.99015808 C-131.5696263 218.88845657 -127.85641403 217.78129974 -124.14347839 216.67313766 C-120.18750757 215.49348204 -116.23002453 214.31892068 -112.27270508 213.14379883 C-105.62378424 211.16872697 -98.97576629 209.1906429 -92.32836914 207.21044922 C-82.72520912 204.34987836 -73.11981864 201.49685305 -63.51391602 198.64550781 C-54.30727305 195.91251712 -45.10105162 193.17813853 -35.89697266 190.43652344 C-35.14095418 190.21134096 -34.3849357 189.98615849 -33.60600758 189.7541523 C-29.03093729 188.39143385 -29.03093729 188.39143385 -24.45590401 187.02859116 C-14.19327885 183.9717902 -3.92624103 180.93030456 6.34457397 177.90113831 C11.88330899 176.26738932 17.42048272 174.62837998 22.95721245 172.98784924 C27.43733717 171.66081647 31.91933906 170.34039153 36.40284443 169.02482891 C39.14240256 168.21920258 41.88001795 167.40713441 44.61710167 166.59314537 C46.49306868 166.03738882 48.37136752 165.48952273 50.24971008 164.94184875 C51.35517685 164.61170273 52.46064362 164.2815567 53.59960938 163.94140625 C54.56443741 163.65690613 55.52926544 163.37240601 56.52333069 163.07928467 C58.86256295 162.43808748 58.86256295 162.43808748 59.68920898 160.22753906 C55.01795792 158.0726799 50.34459717 155.92248046 45.66943359 153.77612305 C44.087501 153.04913373 42.50609856 152.32098942 40.92529297 151.59155273 C29.95141157 146.52910315 18.90005856 141.74169356 7.68920898 137.22753906 C7.35920898 139.53753906 7.02920898 141.84753906 6.68920898 144.22753906 C3.98273432 144.90265078 1.27443713 145.56781247 -1.43579102 146.22753906 C-2.19633789 146.41832031 -2.95688477 146.60910156 -3.74047852 146.80566406 C-8.02667936 147.84026427 -11.86480003 148.45481017 -16.31079102 148.22753906 C-16.98586168 145.16682972 -17.64934024 142.10371817 -18.31079102 139.04003906 C-18.59696289 137.74356445 -18.59696289 137.74356445 -18.88891602 136.42089844 C-19.15961914 135.15922852 -19.15961914 135.15922852 -19.43579102 133.87207031 C-19.60336914 133.1022583 -19.77094727 132.33244629 -19.94360352 131.53930664 C-20.33630016 129.0669366 -20.37264387 126.72678097 -20.31079102 124.22753906 C-23.97502641 122.65639272 -27.64122723 121.0899379 -31.30932617 119.52783203 C-32.55727375 118.99559522 -33.80467361 118.46207228 -35.05151367 117.92724609 C-36.8422273 117.15939037 -38.63507444 116.39651621 -40.42797852 115.63378906 C-41.5067627 115.17294922 -42.58554687 114.71210938 -43.69702148 114.23730469 C-46.15472136 113.10741631 -46.15472136 113.10741631 -48.31079102 113.22753906 C-47.52089081 117.68618721 -46.72854738 122.14439794 -45.93579102 126.60253906 C-45.71407227 127.85421875 -45.49235352 129.10589844 -45.26391602 130.39550781 C-44.15064435 136.64947511 -43.01195705 142.88519129 -41.64990234 149.09033203 C-40.77863455 154.58138911 -41.21414696 158.67312938 -44.43286133 163.2354126 C-47.27822394 166.55388635 -49.82741205 167.38554722 -54.13500977 168.3046875 C-54.8230217 168.45718838 -55.51103363 168.60968925 -56.21989441 168.76681137 C-58.57872778 169.28019745 -60.94340751 169.75522992 -63.31079102 170.22753906 C-65.09555549 170.59723136 -66.88021945 170.96740915 -68.66479492 171.3380127 C-74.80953836 172.59832392 -80.96566648 173.79765839 -87.12329102 174.99316406 C-89.39057392 175.43569686 -91.65782596 175.87838776 -93.92504883 176.32122803 C-98.64436475 177.24186648 -103.3643224 178.15912684 -108.0847168 179.07421875 C-114.12279965 180.2452607 -120.15870872 181.42712533 -126.19413757 182.61175919 C-130.86176233 183.52627991 -135.53070214 184.43393769 -140.20004272 185.33965302 C-142.42677069 185.77264924 -144.65303653 186.20802927 -146.8788147 186.64588165 C-149.98500917 187.25610294 -153.09291093 187.8567549 -156.20141602 188.45507812 C-157.11064316 188.63580872 -158.0198703 188.81653931 -158.95664978 189.00274658 C-172.9945862 191.67227479 -172.9945862 191.67227479 -178.12329102 188.60253906 C-183.62388097 184.50406027 -184.80747034 179.06734984 -186.02832031 172.56982422 C-186.17506195 171.8276767 -186.32180359 171.08552917 -186.47299194 170.32089233 C-186.95197614 167.8876721 -187.41856249 165.45225332 -187.88500977 163.01660156 C-188.21626095 161.3210886 -188.54828842 159.62572713 -188.88105774 157.93051147 C-189.75186048 153.48343494 -190.61214336 149.03438694 -191.47021484 144.58483887 C-192.34885197 140.03871434 -193.23747339 135.49454336 -194.12524414 130.95019531 C-195.86350967 122.04452168 -197.59066235 113.13673227 -199.31079102 104.22753906 C-202.28039103 104.22753906 -205.3026571 104.77784075 -208.25537109 105.11376953 Z"/>
  <path id="path2" transform="translate(196,392)" fill="#490C5B" d="M0 0 C15.54210538 -0.2103701 31.0841041 -0.36901111 46.62729836 -0.46630955 C53.84462743 -0.51269132 61.06107125 -0.57590621 68.27783203 -0.67895508 C74.56906553 -0.76874532 80.85965796 -0.82674287 87.15151441 -0.84679645 C90.48262623 -0.85851792 93.81147959 -0.89073218 97.14210892 -0.95157051 C100.8635892 -1.01684915 104.58126265 -1.02590467 108.30322266 -1.02172852 C109.40373962 -1.054086 110.50425659 -1.08644348 111.63812256 -1.11978149 C118.9555566 -1.03084643 118.9555566 -1.03084643 121.9809866 1.95519733 C123.52718691 4.24477268 124.78882443 6.51997828 126 9 C127.02154175 10.64899292 127.02154175 10.64899292 128.0637207 12.33129883 C128.67820068 13.36279053 129.29268066 14.39428223 129.92578125 15.45703125 C130.44295715 16.32252594 130.44295715 16.32252594 130.97058105 17.20550537 C131.70575347 18.43617004 132.43995988 19.66741225 133.17324829 20.89920044 C135.15198245 24.22235647 137.13902213 27.5405447 139.125 30.859375 C139.53079788 31.53791031 139.93659576 32.21644562 140.35469055 32.9155426 C146.52558454 43.22895653 152.76767175 53.49888731 159.02783203 63.75830078 C160.9545375 66.92527222 162.86700425 70.10048082 164.77734375 73.27734375 C165.93449857 75.18513684 167.09202802 77.09270279 168.25 79 C168.76280518 79.86052979 169.27561035 80.72105957 169.80395508 81.60766602 C173.40799652 87.50644706 177.07980399 92.06878251 184 94 C189.60398487 94.27417623 194.12281283 93.67857751 199.4453125 91.8515625 C200.17551605 91.61181702 200.9057196 91.37207153 201.65805054 91.12506104 C204.15098067 90.3031426 206.63778505 89.4640415 209.125 88.625 C210.95084258 88.01870146 212.77702904 87.41343772 214.60351562 86.80908203 C218.86083136 85.39749855 223.11523756 83.9774862 227.36816406 82.55273438 C235.38870853 79.86702554 243.41636141 77.20288007 251.44405746 74.53863907 C259.13035833 71.98706235 266.81528975 69.4313626 274.5 66.875 C275.32523415 66.60049263 276.15046829 66.32598526 277.00070953 66.04315948 C281.87886386 64.42012034 286.75635463 62.79510706 291.63299942 61.16753769 C293.22590114 60.63595054 294.81890529 60.10467023 296.41201401 59.57370377 C305.299954 56.61013225 314.17177132 53.60603048 323.01953125 50.52441406 C323.8303994 50.24283762 324.64126755 49.96126118 325.47670746 49.67115211 C329.34632297 48.32737738 333.21319686 46.97671124 337.07531738 45.61154175 C338.45309034 45.13148243 339.83097321 44.65173839 341.20898438 44.17236328 C342.40406616 43.75157501 343.59914795 43.33078674 344.83044434 42.89724731 C347.75195676 42.07021682 349.99057937 41.80313897 353 42 C352.28002073 50.49485578 351.55025263 58.98879331 350.80852795 67.48177528 C350.46428142 71.42692048 350.1232096 75.3722828 349.78979492 79.31835938 C349.4669284 83.1381215 349.13519844 86.95702594 348.79772377 90.77552414 C348.67149731 92.22063219 348.5482802 93.66600688 348.42836571 95.11165237 C346.05825729 123.591319 346.05825729 123.591319 338 131 C333.76505669 134.05618884 329.52447609 136.18563033 324.66015625 138.01171875 C323.93072815 138.29288544 323.20130005 138.57405212 322.44976807 138.86373901 C320.84387806 139.48213727 319.23675335 140.09733632 317.62857056 140.70974731 C313.06381283 142.44906197 308.50914824 144.21452388 303.953125 145.9765625 C302.94884964 146.36431351 301.94457428 146.75206451 300.90986633 147.15156555 C287.69673904 152.26202048 274.53717063 157.50806625 261.37307739 162.74315643 C255.90109153 164.91897202 250.42831542 167.09280012 244.95565796 169.26692581 C243.62403829 169.79595692 242.29243421 170.32502726 240.96084595 170.85413742 C229.83512168 175.2748961 218.70156226 179.67547133 207.5625 184.0625 C192.68146189 189.92345197 177.82864267 195.85382002 162.98657227 201.81274414 C162.17703598 202.13741165 161.36749969 202.46207916 160.53343201 202.79658508 C159.03374042 203.39809225 157.5343349 204.00031344 156.03529358 204.60343933 C139.54903478 211.21375824 139.54903478 211.21375824 133 209 C127.00173029 205.3087571 122.74733576 199.46308968 118.41796875 194.0234375 C115.83692924 190.79609569 113.18073997 187.64434756 110.5 184.5 C106.37812233 179.65115099 102.33006862 174.74837002 98.3125 169.8125 C95.73853608 166.68200334 93.12430914 163.58827539 90.5 160.5 C86.37898366 155.65040619 82.33008646 150.74839194 78.3125 145.8125 C75.73853608 142.68200334 73.12430914 139.58827539 70.5 136.5 C66.37898366 131.65040619 62.33008646 126.74839194 58.3125 121.8125 C55.73853608 118.68200334 53.12430914 115.58827539 50.5 112.5 C46.37898366 107.65040619 42.33008646 102.74839194 38.3125 97.8125 C35.73853608 94.68200334 33.12430914 91.58827539 30.5 88.5 C26.38356644 83.65579918 22.33411602 78.76372878 18.33203125 73.82421875 C16.62510637 71.75703836 14.90021003 69.72470891 13.13671875 67.70703125 C-0.1406592 52.46588132 -0.1406592 52.46588132 -0.11352539 42.3449707 C-0.11344986 41.40422195 -0.11337433 40.46347321 -0.11329651 39.49421692 C-0.10813522 38.48163315 -0.10297394 37.46904938 -0.09765625 36.42578125 C-0.0962413 35.38681198 -0.09482635 34.34784271 -0.09336853 33.27738953 C-0.08776656 29.95573052 -0.07521372 26.63413867 -0.0625 23.3125 C-0.05748525 21.06184993 -0.0529223 18.81119881 -0.04882812 16.56054688 C-0.03779649 11.04034163 -0.02105643 5.52017561 0 0 Z"/>
  <path id="path4" transform="translate(411.4375,174.625)" fill="#A2BC31" d="M0 0 C4.94910819 4.58697833 7.035469 8.98143716 8.23828125 15.5703125 C8.36889954 16.26276566 8.49951782 16.95521881 8.63409424 17.6686554 C9.06038994 19.94362363 9.46748348 22.22160008 9.875 24.5 C10.17356906 26.10842969 10.47364457 27.71658039 10.77514648 29.32446289 C11.40096788 32.66885293 12.02028305 36.01434846 12.63476562 39.36083984 C13.93826208 46.43659726 15.30974235 53.49902592 16.68624878 60.56088257 C17.12482305 62.81159194 17.56162823 65.0626398 17.99829102 67.3137207 C19.87188352 76.95207961 21.81569752 86.57389256 23.8125 96.1875 C24.18205811 97.97450317 24.18205811 97.97450317 24.55908203 99.79760742 C25.55523663 104.60003109 26.55931588 109.39868779 27.63671875 114.18359375 C30.77357307 128.29358896 30.77357307 128.29358896 27.7109375 135.33203125 C24.71748065 139.91877966 20.98183539 141.04484436 15.8046875 142.27636719 C15.11188187 142.44155727 14.41907623 142.60674736 13.70527649 142.77694321 C3.44593709 145.17092024 -6.90991348 147.13309239 -17.25 149.140625 C-19.5172829 149.5831578 -21.78453495 150.0258487 -24.05175781 150.46868896 C-28.77107374 151.38932741 -33.49103138 152.30658778 -38.21142578 153.22167969 C-44.24950864 154.39272164 -50.28541771 155.57458627 -56.32084656 156.75922012 C-60.98847132 157.67374085 -65.65741113 158.58139863 -70.32675171 159.48711395 C-72.55347967 159.92011018 -74.77974552 160.35549021 -77.00552368 160.79334259 C-80.11171816 161.40356388 -83.21961991 162.00421584 -86.328125 162.60253906 C-87.23735214 162.78326965 -88.14657928 162.96400024 -89.08335876 163.15020752 C-103.10831249 165.81726687 -103.10831249 165.81726687 -108.1875 162.8125 C-108.71859375 162.52246094 -109.2496875 162.23242188 -109.796875 161.93359375 C-116.42696945 155.63500403 -117.16760095 146.37460752 -118.78515625 137.828125 C-119.08513017 136.2916124 -119.38612928 134.75529963 -119.68809509 133.21917725 C-120.31836122 129.99959921 -120.94043929 126.77859135 -121.5559082 123.55615234 C-122.33393481 119.48282381 -123.12555376 115.41230566 -123.92252827 111.3426466 C-129.46840715 83.01163465 -129.46840715 83.01163465 -131.56796265 68.9957428 C-132.34980493 63.78238679 -133.40282873 58.68690661 -134.625 53.5625 C-136.58387391 44.7079849 -138.51750471 35.40167806 -134.9375 26.75 C-129.49725891 21.58177096 -122.90713733 19.71528876 -115.6796875 18.375 C-114.86204926 18.21380173 -114.04441101 18.05260345 -113.20199585 17.88652039 C-110.57420485 17.37144396 -107.943574 16.87300632 -105.3125 16.375 C-103.499493 16.02282423 -101.68666774 15.66971163 -99.87402344 15.31567383 C-89.69581403 13.33686407 -79.50732358 11.39096424 -69.28466797 9.65429688 C-65.13161353 8.93575679 -61.07053779 8.05162288 -56.98828125 7 C-49.62915527 5.12252884 -42.20601636 3.62160899 -34.75561523 2.15795898 C-32.37345108 1.6871939 -29.99448489 1.20204359 -27.61523438 0.71679688 C-7.13225826 -3.371613 -7.13225826 -3.371613 0 0 Z"/>
  <path id="path11" transform="translate(478.0242004394531,146.7606201171875)" fill="#A2BC31" d="M0 0 C3.5220964 1.08434587 6.99983829 2.26072378 10.47970581 3.47375488 C11.77012039 3.9136108 13.06089422 4.35241403 14.352005 4.79022217 C17.04523848 5.70662146 19.73516482 6.6319481 22.42282104 7.5645752 C25.84644937 8.75236046 29.27559347 9.92309234 32.70712376 11.08782578 C35.36924765 11.99244805 38.02921047 12.90328415 40.68848991 13.81623077 C42.55992583 14.45838922 44.43234877 15.09766889 46.30479431 15.73687744 C61.53715095 21.02935458 61.53715095 21.02935458 65.97579956 25.05187988 C68.46055644 30.48728556 66.66352252 36.00462687 64.78048706 41.36047363 C64.55250931 42.01772934 64.32453156 42.67498505 64.08964539 43.35215759 C63.35387887 45.46425516 62.60272365 47.5704868 61.85079956 49.67687988 C61.33935591 51.13445048 60.82869741 52.59229681 60.31881714 54.05041504 C57.42928729 62.28429962 54.4531596 70.48240778 51.30783081 78.62219238 C50.27765505 81.41967848 49.32798235 84.2052243 48.42501831 87.04406738 C48.16180786 87.86665039 47.89859741 88.6892334 47.62741089 89.53674316 C47.12520539 91.12277159 46.63341892 92.71215337 46.15426636 94.30529785 C44.8286557 98.49386913 43.74125354 101.65958788 39.97579956 104.23937988 C34.76982354 105.38865651 31.33009079 105.10302025 26.30953979 103.39685059 C25.68417328 103.18884323 25.05880676 102.98083588 24.41448975 102.76652527 C22.36582158 102.080769 20.32531375 101.37361071 18.28439331 100.66516113 C16.85181737 100.1790019 15.41887298 99.69392714 13.98558044 99.20988464 C10.98918379 98.19437265 7.99652847 97.16871118 5.00631714 96.13513184 C1.18659777 94.81529109 -2.63991061 93.51666223 -6.46925449 92.22504902 C-9.42712145 91.22560674 -12.38186 90.21717632 -15.33567619 89.20583153 C-16.74502436 88.72401035 -18.15513828 88.24442273 -19.56604195 87.76717567 C-21.54293541 87.09647017 -23.51549995 86.41429385 -25.48733521 85.72888184 C-27.16775658 85.15143974 -27.16775658 85.15143974 -28.88212585 84.56233215 C-37.09084004 81.10610068 -37.09084004 81.10610068 -39.02420044 77.23937988 C-39.68000072 69.85611243 -37.60043661 63.80074295 -35.26248169 56.84875488 C-34.87481125 55.66775208 -34.48714081 54.48674927 -34.08772278 53.2699585 C-33.05763256 50.14154877 -32.01690945 47.01693967 -30.9715271 43.89361572 C-29.92380461 40.7508512 -28.89449073 37.60204855 -27.86209106 34.45422363 C-27.05909168 32.02289129 -26.25508717 29.59189063 -25.44998169 27.16125488 C-25.08206009 26.04522888 -24.71413849 24.92920288 -24.33506775 23.77935791 C-22.51379403 18.34373742 -20.59528005 12.95479953 -18.49758911 7.6192627 C-18.11986862 6.65691711 -17.74214813 5.69457153 -17.35298157 4.70306396 C-13.54660625 -2.35431071 -6.95729018 -1.74983602 0 0 Z"/>
  <path id="path13" transform="translate(351.1190490722656,100.49575805664063)" fill="#A3BC30" d="M0 0 C2.24478822 0.68244971 4.44468846 1.44308237 6.65048218 2.24252319 C7.45330124 2.52395676 8.2561203 2.80539032 9.08326721 3.09535217 C10.76690358 3.68876591 12.44839638 4.28829371 14.1277771 4.89364624 C16.6982646 5.81847384 19.27601924 6.72025198 21.8555603 7.61947632 C23.49601138 8.20081399 25.13600265 8.78345118 26.77548218 9.36752319 C27.54423172 9.63639847 28.31298126 9.90527374 29.10502625 10.18229675 C32.69246002 11.48754649 35.4544707 12.51535803 37.88095093 15.50424194 C38.6022655 21.46642347 36.8976689 26.19563068 34.85360718 31.68392944 C34.54523422 32.53729889 34.23686127 33.39066833 33.91914368 34.26989746 C33.26942841 36.06181551 32.61442966 37.85182579 31.95443726 39.63998413 C30.9403311 42.3876951 29.94150401 45.14058319 28.94540405 47.89486694 C28.31150875 49.6373713 27.67677292 51.37957016 27.04110718 53.12142944 C26.74003555 53.94738617 26.43896393 54.7733429 26.12876892 55.62432861 C23.99921371 61.38597916 23.99921371 61.38597916 22.88095093 62.50424194 C16.60782814 62.92291678 11.78072918 61.84015095 5.89266968 59.76596069 C5.06765457 59.48452713 4.24263947 59.20309357 3.3926239 58.91313171 C1.66200584 58.31960503 -0.06656475 57.72007738 -1.79312134 57.11483765 C-4.43621501 56.19010949 -7.08635249 55.28831349 -9.7381897 54.38900757 C-11.42419944 53.80766596 -13.1097631 53.22502864 -14.79483032 52.64096069 C-15.58545364 52.37208542 -16.37607697 52.10321014 -17.19065857 51.82618713 C-17.92539902 51.56614395 -18.66013947 51.30610077 -19.41714478 51.03817749 C-20.06141922 50.81389572 -20.70569366 50.58961395 -21.36949158 50.35853577 C-23.47669282 49.32960759 -24.70058007 48.37871923 -26.11904907 46.50424194 C-26.61736883 40.61250503 -24.42082338 34.56811561 -22.50186157 29.07455444 C-22.244039 28.31754242 -21.98621643 27.5605304 -21.72058105 26.78057861 C-21.17876966 25.19763865 -20.63234217 23.61627163 -20.08145142 22.03646851 C-19.24040027 19.61875296 -18.41912475 17.1949248 -17.59951782 14.76986694 C-17.06812877 13.22519552 -16.53561642 11.68090997 -16.00186157 10.13705444 C-15.63606491 9.05425705 -15.63606491 9.05425705 -15.26287842 7.94958496 C-12.297068 -0.46020867 -8.67891643 -2.03045923 0 0 Z"/>
  <path id="path14" transform="translate(450,83)" fill="#A3BD31" d="M0 0 C2.27676321 4.8817085 3.13005258 9.99520363 4.125 15.25 C4.30675781 16.15363281 4.48851562 17.05726562 4.67578125 17.98828125 C5.78086596 23.76297204 6.17994436 29.1218177 6 35 C-18.76724138 41.33008899 -18.76724138 41.33008899 -29 41 C-31.16544791 36.26917912 -32.10719432 31.38268015 -33.125 26.3125 C-33.39763672 25.04116211 -33.39763672 25.04116211 -33.67578125 23.74414062 C-34.88554028 17.76356496 -35.22012909 12.09431468 -35 6 C-10.23275862 -0.33008899 -10.23275862 -0.33008899 0 0 Z"/>
  <path id="path21" transform="translate(522,96)" fill="#A3BD30" d="M0 0 C2.12340609 3.87720907 2.82823532 8.25771094 3.6875 12.5625 C3.82994141 13.22185547 3.97238281 13.88121094 4.11914062 14.56054688 C5.40535875 20.92764656 5.40535875 20.92764656 4 24 C-3.37425429 27.40350198 -11.96811981 28.29747704 -20 28 C-22.12371842 23.40792464 -22.92043397 18.76224397 -23.75 13.8125 C-23.97623047 12.58370117 -23.97623047 12.58370117 -24.20703125 11.33007812 C-24.56250354 9.23348185 -24.79109268 7.11623114 -25 5 C-21.85411936 1.85411936 -17.89146632 1.68662069 -13.625 0.8125 C-12.76132812 0.62236328 -11.89765625 0.43222656 -11.0078125 0.23632812 C-10.1725 0.06166016 -9.3371875 -0.11300781 -8.4765625 -0.29296875 C-7.71424316 -0.4530542 -6.95192383 -0.61313965 -6.16650391 -0.77807617 C-3.8007301 -1.02041203 -2.22194679 -0.83682531 0 0 Z"/>
  <path id="path22" transform="translate(485,269)" fill="#A1BA31" d="M0 0 C0.677219 2.51840815 1.34191174 5.03908724 2 7.5625 C2.19078125 8.26697266 2.3815625 8.97144531 2.578125 9.69726562 C3.75834086 14.27060209 4.19856973 18.27776365 4 23 C-3.75530453 26.15956851 -11.53904405 28.44531347 -20 28 C-22.94004087 20.06188964 -26.12507265 11.43957425 -24 3 C-20.75290806 2.29825244 -17.50199748 1.61611931 -14.25 0.9375 C-13.32960938 0.73833984 -12.40921875 0.53917969 -11.4609375 0.33398438 C-10.57148438 0.15029297 -9.68203125 -0.03339844 -8.765625 -0.22265625 C-7.94868164 -0.39547119 -7.13173828 -0.56828613 -6.29003906 -0.74633789 C-3.89799506 -1.01129884 -2.27474929 -0.73312703 0 0 Z"/>
  <path id="path34" transform="translate(485,51)" fill="#A3BC30" d="M0 0 C4.75416122 0.49493467 7.55220583 1.72123406 11.375 4.5625 C12.68597656 5.52349609 12.68597656 5.52349609 14.0234375 6.50390625 C14.67570312 6.99761719 15.32796875 7.49132813 16 8 C15.4520917 12.2829452 13.97567196 14.85135641 11.4375 18.3125 C10.79683594 19.19550781 10.15617187 20.07851562 9.49609375 20.98828125 C9.00238281 21.65214844 8.50867188 22.31601563 8 23 C3.70946838 22.48463947 0.77390743 21.60084061 -2.8125 19.1875 C-3.58207031 18.68605469 -4.35164063 18.18460938 -5.14453125 17.66796875 C-7 16 -7 16 -8.0078125 14.19140625 C-7.99518996 10.6507845 -6.06769262 8.58811878 -4.0625 5.75 C-2.93521484 4.13351563 -2.93521484 4.13351563 -1.78515625 2.484375 C-1.19605469 1.66453125 -0.60695313 0.8446875 0 0 Z"/>
  <path id="path35" transform="translate(396,60)" fill="#A3BD30" d="M0 0 C2.49779218 5.82818176 3.12442686 10.65423002 3 17 C1.10614563 17.50744423 -0.79018666 18.00564574 -2.6875 18.5 C-3.74324219 18.7784375 -4.79898437 19.056875 -5.88671875 19.34375 C-8.71142672 19.9391715 -11.12836708 20.12786492 -14 20 C-16.49779218 14.17181824 -17.12442686 9.34576998 -17 3 C-11.10261508 0.70657253 -6.33393082 -0.34548714 0 0 Z"/>
  <path id="path37" transform="translate(306,165)" fill="#A5BE2F" d="M0 0 C1.38125018 2.76250036 1.19079306 4.94731099 1 8 C-1 10 -1 10 -4.5 10.25 C-8 10 -8 10 -10 8 C-10.32954432 4.90228335 -10.45334601 2.82668977 -8.9375 0.0625 C-5.81857551 -1.64787795 -3.34442199 -0.80513863 0 0 Z"/>
  <path id="path38" transform="translate(478,13)" fill="#A3BC31" d="M0 0 C1.8125 1.125 1.8125 1.125 3 3 C3.3125 6.0625 3.3125 6.0625 3 9 C1 11 1 11 -2.5 11.25 C-6 11 -6 11 -8 9 C-8.333728 5.86295684 -8.52849028 3.83445834 -6.8125 1.125 C-4.34492892 -0.40659584 -2.85480169 -0.42822025 0 0 Z"/>
  <path id="path39" transform="translate(542,56)" fill="#A2BC30" d="M0 0 C1 1 1 1 1.1875 4.4375 C1 8 1 8 -1 10 C-4.13704316 10.333728 -6.16554166 10.52849028 -8.875 8.8125 C-10.40659584 6.34492892 -10.42822025 4.85480169 -10 2 C-7.59027568 -2.25245468 -4.23782457 -0.94173879 0 0 Z"/>
  <path id="path40" transform="translate(436.75,40.75)" fill="#A3BD30" d="M0 0 C2.25 1.25 2.25 1.25 3.25 2.25 C3.5625 5.125 3.5625 5.125 3.25 8.25 C1.5625 10.1875 1.5625 10.1875 -0.75 11.25 C-4.12036311 11.00925978 -5.33798021 10.66201979 -7.75 8.25 C-8.1875 5.3125 -8.1875 5.3125 -7.75 2.25 C-4.93014202 -0.32815587 -3.73790549 -1.01942877 0 0 Z"/>
  <path id="path41" transform="translate(390,22)" fill="#A4BE2F" d="M0 0 C2 2 2 2 2.3125 5.5 C2.1578125 7.2325 2.1578125 7.2325 2 9 C-1.23253796 11.15502531 -2.25150923 11.46856135 -6 11 C-7.8125 9.8125 -7.8125 9.8125 -9 8 C-9.42822025 5.14519831 -9.40659584 3.65507108 -7.875 1.1875 C-5.16554166 -0.52849028 -3.13704316 -0.333728 0 0 Z"/>
  <path id="path42" transform="translate(538.4375,-0.1875)" fill="#A2BB30" d="M0 0 C3.5625 0.1875 3.5625 0.1875 5.5625 2.1875 C5.89552312 5.3179173 6.03921956 7.36648298 4.4375 10.125 C2.5625 11.1875 2.5625 11.1875 -0.5 11 C-3.4375 10.1875 -3.4375 10.1875 -5.4375 8.1875 C-4.74198718 0.25865385 -4.74198718 0.25865385 0 0 Z"/>
  <path id="path46" transform="translate(510.4375,271.6875)" fill="#F9F7FA" d="M0 0 C2.5625 0.3125 2.5625 0.3125 4.4375 1.5 C5.5625 3.3125 5.5625 3.3125 5.375 5.875 C4.5625 8.3125 4.5625 8.3125 2.5625 10.3125 C0.0625 10.5625 0.0625 10.5625 -2.4375 10.3125 C-4.4375 8.3125 -4.4375 8.3125 -4.6875 5.3125 C-4.37675292 1.58353509 -3.7821044 0.48488518 0 0 Z"/>
</svg>